HIERARCHY
ROOT root
{
	OFFSET 0.000000 0.000000 0.000000
	CHANNELS 6 Xposition Yposition Zposition Zrotation Yrotation Xrotation
	JOINT lhip
	{
		OFFSET 0.058581 -0.082280 -0.017664
		CHANNELS 3 Zrotation Yrotation Xrotation
		JOINT lknee
		{
			OFFSET 0.043451 -0.386469 0.008037
			CHANNELS 3 Zrotation Yrotation Xrotation
			JOINT lankle
			{
				OFFSET -0.014790 -0.426874 -0.037428
				CHANNELS 3 Zrotation Yrotation Xrotation
				JOINT ltoe
				{
					OFFSET 0.041054 -0.060286 0.122042
					CHANNELS 3 Zrotation Yrotation Xrotation
					End Site
					{
						OFFSET 0.000000 0.000000 0.000000
					}
				}
			}
		}
	}
	JOINT rhip
	{
		OFFSET -0.060310 -0.090513 -0.013543
		CHANNELS 3 Zrotation Yrotation Xrotation
		JOINT rknee
		{
			OFFSET -0.043257 -0.383688 -0.004843
			CHANNELS 3 Zrotation Yrotation Xrotation
			JOINT rankle
			{
				OFFSET 0.019056 -0.420046 -0.034562
				CHANNELS 3 Zrotation Yrotation Xrotation
				JOINT rtoe
				{
					OFFSET -0.034840 -0.062106 0.130323
					CHANNELS 3 Zrotation Yrotation Xrotation
					End Site
					{
						OFFSET 0.000000 0.000000 0.000000
					}
				}
			}
		}
	}
	JOINT lowerback
	{
		OFFSET 0.004439 0.124404 -0.038385
		CHANNELS 3 Zrotation Yrotation Xrotation
		JOINT upperback
		{
			OFFSET 0.004488 0.137956 0.026820
			CHANNELS 3 Zrotation Yrotation Xrotation
			JOINT chest
			{
				OFFSET -0.002265 0.056032 0.002855
				CHANNELS 3 Zrotation Yrotation Xrotation
				JOINT lowerneck
				{
					OFFSET -0.013390 0.211636 -0.033468
					CHANNELS 3 Zrotation Yrotation Xrotation
					JOINT upperneck
					{
						OFFSET 0.010113 0.088937 0.050410
						CHANNELS 3 Zrotation Yrotation Xrotation
						End Site
						{
							OFFSET 0.000000 0.000000 0.000000
						}
					}
				}
				JOINT lclavicle
				{
					OFFSET 0.071702 0.114000 -0.018898
					CHANNELS 3 Zrotation Yrotation Xrotation
					JOINT lshoulder
					{
						OFFSET 0.122921 0.045205 -0.019046
						CHANNELS 3 Zrotation Yrotation Xrotation
						JOINT lelbow
						{
							OFFSET 0.255332 -0.015649 -0.022946
							CHANNELS 3 Zrotation Yrotation Xrotation
							JOINT lwrist
							{
								OFFSET 0.265709 0.012698 -0.007375
								CHANNELS 3 Zrotation Yrotation Xrotation
								End Site
								{
									OFFSET 0.000000 0.000000 0.000000
								}
							}
						}
					}
				}
				JOINT rclavicle
				{
					OFFSET -0.082954 0.112472 -0.023707
					CHANNELS 3 Zrotation Yrotation Xrotation
					JOINT rshoulder
					{
						OFFSET -0.113228 0.046853 -0.008472
						CHANNELS 3 Zrotation Yrotation Xrotation
						JOINT relbow
						{
							OFFSET -0.260127 -0.014369 -0.031269
							CHANNELS 3 Zrotation Yrotation Xrotation
							JOINT rwrist
							{
								OFFSET -0.269108 0.006794 -0.006027
								CHANNELS 3 Zrotation Yrotation Xrotation
								End Site
								{
									OFFSET 0.000000 0.000000 0.000000
								}
							}
						}
					}
				}
			}
		}
	}
}
MOTION
Frames: 7
Frame Time: 0.033333
0.114690 0.800522 0.967950 52.624806 4.913287 97.248359 15.628834 -0.624388 -23.570720 -4.214258 0.141214 23.657844 3.862730 11.105093 -24.029485 0.000000 -0.000000 0.000000 -11.621475 -1.443745 13.840656 5.488740 14.958712 -7.808085 13.516541 -7.189080 -7.216209 0.000000 -0.000000 0.000000 4.742721 6.672501 -1.428907 0.633935 -3.846334 -0.072797 -2.465293 -0.197730 1.089448 3.904914 3.473560 -11.846672 1.315855 13.529578 7.076861 -34.122042 0.155542 4.310429 -43.492682 1.882862 4.406339 8.392394 -27.196304 -8.909027 20.919247 -11.330361 -15.015415 16.825487 -1.325122 -4.601919 2.802511 6.580378 -0.353696 -155.363972 61.009188 -143.928296 -2.172098 24.757418 -31.248344 
0.096919 0.795907 0.968247 52.451237 4.695104 97.087800 16.027933 -0.032631 -23.175163 -3.544535 0.333621 21.997113 3.673713 10.444456 -22.574154 0.000000 -0.000000 0.000000 -11.176059 -1.866146 14.020653 5.716269 14.833506 -8.907061 12.447366 -6.609216 -7.810310 0.000000 -0.000000 0.000000 4.798299 6.077345 -1.298358 0.786323 -4.501607 -1.152952 -2.328747 -0.641271 1.665428 3.766614 4.053609 -11.407229 1.450556 15.118162 8.462443 -33.868072 0.438319 4.332878 -45.563781 1.344893 3.222837 9.512624 -27.640671 -8.826454 21.511640 -10.134975 -17.367411 16.995228 -1.692021 -5.147225 6.891963 9.242326 -1.535474 -150.315391 57.665380 -137.762398 -5.419707 23.571706 -31.806463 
0.079242 0.791617 0.969093 52.023286 4.692033 96.798810 16.463307 0.572826 -22.527815 -2.639822 0.580775 20.188815 3.258559 10.011975 -21.152369 0.000000 -0.000000 0.000000 -10.236515 -1.751089 13.650211 5.900747 14.447354 -8.986623 11.021455 -6.395053 -8.775433 0.000000 -0.000000 0.000000 4.770836 5.418577 -1.220172 1.424839 -5.146370 -1.428776 -2.122179 -1.028399 1.798945 3.571663 5.786363 -10.983664 1.073148 15.720170 9.544056 -34.193988 0.618234 4.367434 -46.712198 0.740928 2.654363 10.125184 -28.224801 -9.129371 21.859221 -9.310436 -18.833124 18.604633 -1.889943 -5.355358 8.706295 12.471294 -2.898324 -146.666094 54.474217 -133.904713 -10.050668 21.736442 -32.112268 
0.059499 0.787661 0.969763 51.338639 4.707422 96.253507 16.932097 1.039096 -21.289924 -1.552911 1.177557 17.755204 2.782036 9.713788 -19.358593 0.000000 -0.000000 0.000000 -9.184324 -0.982530 13.678359 6.179195 13.273677 -9.637393 9.512065 -6.184083 -9.290357 0.000000 -0.000000 0.000000 4.673687 4.603075 -0.766972 2.410454 -5.998747 -1.518534 -1.766501 -1.480310 1.593962 3.486160 8.250236 -10.242586 0.347366 16.274309 10.415025 -34.466241 0.311454 5.005418 -48.314431 -0.129451 2.496287 10.544244 -29.116475 -8.266392 22.376551 -8.506915 -19.974161 20.574517 -1.671542 -5.307415 11.711842 16.624627 -3.843573 -144.036293 50.500605 -130.143956 -16.592184 19.089627 -31.905099 
0.048893 0.785614 0.969947 50.965341 4.804661 95.938796 17.277435 1.462567 -20.539799 -0.978658 1.599377 16.342567 2.435183 9.259762 -18.316274 0.000000 -0.000000 0.000000 -8.629562 -0.879295 13.644468 6.404296 12.763314 -9.845755 8.715995 -5.732526 -9.480653 0.000000 -0.000000 0.000000 4.669207 4.174360 -0.548519 3.092129 -6.590148 -1.429390 -1.520095 -1.734523 1.318051 3.451922 9.774114 -9.675845 -0.136990 16.531141 10.827675 -34.620472 -0.200674 5.537806 -49.205495 -0.548413 2.572120 10.423188 -29.747028 -6.966625 22.575487 -8.214834 -20.164772 21.762891 -1.236451 -5.085558 13.702348 18.907020 -4.184419 -143.278020 48.236098 -128.440531 -20.305120 17.761953 -31.353696 
0.036428 0.783015 0.969957 50.431118 5.041968 95.706622 17.834164 2.304322 -19.679590 -0.337504 2.245074 14.530422 1.927226 8.280693 -16.997778 0.000000 -0.000000 0.000000 -8.021213 -1.246765 13.130679 6.861097 12.572550 -9.515846 7.632258 -4.820513 -9.886067 0.000000 -0.000000 0.000000 4.798661 3.736107 -0.684175 4.083542 -7.384009 -1.138548 -1.275153 -2.010331 0.898596 3.403824 11.860252 -8.829465 -0.784318 16.628986 11.452671 -34.719303 -1.152079 6.337780 -50.307619 -1.094594 2.936871 9.738817 -30.619792 -4.092677 22.712391 -7.963648 -20.428186 23.418293 -0.547849 -4.501222 16.373354 21.788094 -4.471265 -143.133495 45.592092 -126.614439 -25.212409 16.377458 -30.247688 
0.025787 0.781292 0.969700 49.729211 5.244736 95.829299 18.346430 3.203717 -19.109432 0.150336 3.254755 12.789274 1.488952 7.173887 -15.683203 0.000000 -0.000000 0.000000 -7.605030 -1.156276 12.154120 7.458110 12.154294 -9.043637 6.656730 -3.823458 -10.196642 0.000000 -0.000000 0.000000 4.976843 3.528753 -1.495844 5.112372 -7.991211 -0.504511 -1.203476 -2.181184 0.386085 3.523696 14.022976 -7.941450 -1.567838 16.166503 12.176621 -34.800807 -2.309487 7.226718 -51.253628 -1.990758 3.652985 9.031176 -31.228930 -0.973995 22.478369 -8.424009 -19.931623 25.192817 0.022154 -3.523807 18.780088 24.576529 -4.527865 -143.463565 43.150311 -125.022837 -29.774062 15.600794 -29.390271 
